<?xml version="1.0" encoding="UTF-8"?>
<svg id="b" data-name="Layer 2" xmlns="http://www.w3.org/2000/svg" width="291.396" height="158.65" viewBox="0 0 291.396 158.65">
  <g id="c" data-name="Layer 1">
    <g>
      <g>
        <polygon points="204.216 37.462 237.472 74.925 205.512 74.925 188.237 55.474 170.961 74.925 138.985 74.925 172.257 37.462 188.237 19.451 205.512 0 237.472 0 204.216 37.462" fill="#fff"/>
        <polygon points="170.232 0 103.721 74.925 70.817 74.925 53.925 55.906 69.921 37.894 87.261 57.441 138.256 0 170.232 0" fill="#fff"/>
      </g>
      <g>
        <path d="M.738,122.17v-6.062h6.452v5.014c0,.544.155.738.738.738h4.586c.544,0,.738-.194.738-.738v-20.793h6.452v21.842c0,3.614-1.749,5.363-5.363,5.363H6.102c-3.653,0-5.363-1.749-5.363-5.363Z" fill="#fff"/>
        <path d="M30.355,100.328h8.9l8.278,27.205h-6.957l-1.554-5.752h-8.667l-1.555,5.752h-6.685l8.239-27.205ZM28.179,92.555h5.441v5.207h-5.441v-5.207ZM37.545,116.301l-2.837-10.649-2.876,10.649h5.713ZM36.107,92.555h5.402v5.207h-5.402v-5.207Z" fill="#fff"/>
        <path d="M50.607,100.328h15.157c3.614,0,5.363,1.71,5.363,5.363v6.802c0,3.07-1.205,4.741-3.731,5.207l4.703,9.833h-6.724l-4.547-9.366h-3.77v9.366h-6.451v-27.205ZM63.937,112.803c.544,0,.739-.155.739-.738v-5.519c0-.583-.194-.738-.739-.738h-6.879v6.995h6.879Z" fill="#fff"/>
        <path d="M75.988,100.328h6.568l9.6,15.974v-15.974h6.257v27.205h-5.985l-10.183-16.867v16.867h-6.257v-27.205Z" fill="#fff"/>
        <path d="M103.857,100.328h6.334v12.554l8.784-12.554h7.268l-8.006,10.571,8.434,16.634h-6.996l-5.519-11.193-3.964,5.208v5.985h-6.334v-27.205Z" fill="#fff"/>
        <path d="M129.626,100.328h6.451v27.205h-6.451v-27.205Z" fill="#fff"/>
        <path d="M141.521,100.328h15.157c3.614,0,5.363,1.71,5.363,5.363v6.802c0,3.07-1.205,4.741-3.731,5.207l4.703,9.833h-6.724l-4.547-9.366h-3.771v9.366h-6.451v-27.205ZM154.85,112.803c.545,0,.738-.155.738-.738v-5.519c0-.583-.193-.738-.738-.738h-6.879v6.995h6.879Z" fill="#fff"/>
        <path d="M166.707,122.17v-21.842h6.451v20.754c0,.505.233.738.738.738h6.335c.544,0,.738-.233.738-.738v-20.754h6.452v21.842c0,3.537-1.788,5.363-5.363,5.363h-9.988c-3.537,0-5.363-1.826-5.363-5.363Z" fill="#fff"/>
        <path d="M192.67,100.328h15.157c3.614,0,5.363,1.71,5.363,5.363v6.802c0,3.07-1.205,4.741-3.731,5.207l4.702,9.833h-6.723l-4.548-9.366h-3.77v9.366h-6.451v-27.205ZM206,112.803c.544,0,.738-.155.738-.738v-5.519c0-.583-.194-.738-.738-.738h-6.879v6.995h6.879Z" fill="#fff"/>
        <path d="M217.546,122.17v-16.479c0-3.653,1.749-5.363,5.363-5.363h10.066c3.614,0,5.363,1.71,5.363,5.363v3.614h-6.413v-2.682c0-.583-.194-.738-.738-.738h-6.451c-.544,0-.738.155-.738.738v14.613c0,.544.194.738.738.738h6.451c.544,0,.738-.194.738-.738v-3.809h-4.586v-5.324h10.999v10.065c0,3.614-1.749,5.363-5.363,5.363h-10.066c-3.614,0-5.363-1.749-5.363-5.363Z" fill="#fff"/>
        <path d="M243.122,100.328h18.732v5.597h-12.281v4.936h9.833v5.519h-9.833v5.558h12.281v5.597h-18.732v-27.205Z" fill="#fff"/>
        <path d="M266.249,100.328h6.567l9.6,15.974v-15.974h6.258v27.205h-5.985l-10.183-16.867v16.867h-6.257v-27.205Z" fill="#fff"/>
      </g>
      <g>
        <path d="M27.965,138.803h4.284l3.984,13.095h-3.349l-.748-2.769h-4.172l-.748,2.769h-3.218l3.966-13.095ZM31.426,146.492l-1.366-5.126-1.384,5.126h2.75Z" fill="#fff"/>
        <path d="M35.016,138.803h3.368l2.469,9.783,2.469-9.783h3.274l-4.003,13.095h-3.573l-4.003-13.095Z" fill="#fff"/>
        <path d="M49.326,138.803h4.284l3.984,13.095h-3.349l-.748-2.769h-4.172l-.748,2.769h-3.218l3.966-13.095ZM52.787,146.492l-1.366-5.126-1.384,5.126h2.75Z" fill="#fff"/>
        <path d="M59.07,138.803h3.162l4.621,7.688v-7.688h3.012v13.095h-2.881l-4.901-8.119v8.119h-3.012v-13.095Z" fill="#fff"/>
        <path d="M72.238,149.316v-7.932c0-1.758.86-2.581,2.6-2.581h4.677c1.74,0,2.563.823,2.563,2.581v2.282h-3.105v-1.814c0-.28-.093-.355-.355-.355h-2.918c-.262,0-.355.075-.355.355v6.997c0,.262.093.355.355.355h2.918c.262,0,.355-.094.355-.355v-1.834h3.105v2.301c0,1.74-.842,2.582-2.582,2.582h-4.677c-1.74,0-2.582-.842-2.582-2.582Z" fill="#fff"/>
        <path d="M84.153,138.803h9.017v2.693h-5.911v2.376h4.733v2.656h-4.733v2.676h5.911v2.693h-9.017v-13.095Z" fill="#fff"/>
        <path d="M95.282,138.803h7.296c1.74,0,2.582.823,2.582,2.581v3.274c0,1.478-.58,2.282-1.796,2.506l2.264,4.733h-3.236l-2.189-4.509h-1.814v4.509h-3.105v-13.095ZM101.699,144.808c.262,0,.355-.075.355-.355v-2.656c0-.281-.094-.355-.355-.355h-3.311v3.367h3.311Z" fill="#fff"/>
        <path d="M110.321,138.803h4.284l3.984,13.095h-3.349l-.748-2.769h-4.172l-.748,2.769h-3.218l3.966-13.095ZM113.782,146.492l-1.366-5.126-1.384,5.126h2.75Z" fill="#fff"/>
        <path d="M120.065,138.803h7.483c1.74,0,2.582.823,2.582,2.581v7.932c0,1.74-.842,2.582-2.582,2.582h-7.483v-13.095ZM126.669,149.205c.262,0,.355-.094.355-.355v-6.997c0-.28-.093-.355-.355-.355h-3.498v7.708h3.498Z" fill="#fff"/>
        <path d="M136.637,149.316v-1.721h3.068v1.328c0,.262.093.355.355.355h2.956c.262,0,.355-.094.355-.355v-1.365c0-.3-.131-.394-.524-.486l-3.479-.842c-1.74-.431-2.694-.917-2.694-2.694v-2.151c0-1.758.842-2.581,2.582-2.581h4.415c1.74,0,2.582.823,2.582,2.581v1.571h-3.068v-1.179c0-.28-.094-.355-.355-.355h-2.694c-.262,0-.355.075-.355.355v1.217c0,.299.112.393.524.486l3.479.842c1.74.43,2.694.916,2.694,2.693v2.301c0,1.74-.842,2.582-2.582,2.582h-4.677c-1.74,0-2.582-.842-2.582-2.582Z" fill="#fff"/>
        <path d="M147.411,138.803h3.368l2.469,9.783,2.47-9.783h3.273l-4.003,13.095h-3.573l-4.004-13.095Z" fill="#fff"/>
        <path d="M160.486,138.803h9.017v2.693h-5.911v2.376h4.732v2.656h-4.732v2.676h5.911v2.693h-9.017v-13.095Z" fill="#fff"/>
        <path d="M174.122,141.515h-3.405v-2.712h9.934v2.712h-3.423v10.383h-3.105v-10.383Z" fill="#fff"/>
        <path d="M181.771,149.316v-1.721h3.067v1.328c0,.262.094.355.355.355h2.956c.262,0,.355-.094.355-.355v-1.365c0-.3-.131-.394-.523-.486l-3.48-.842c-1.739-.431-2.693-.917-2.693-2.694v-2.151c0-1.758.842-2.581,2.582-2.581h4.414c1.74,0,2.582.823,2.582,2.581v1.571h-3.068v-1.179c0-.28-.093-.355-.355-.355h-2.693c-.262,0-.355.075-.355.355v1.217c0,.299.112.393.523.486l3.479.842c1.74.43,2.694.916,2.694,2.693v2.301c0,1.74-.842,2.582-2.582,2.582h-4.677c-1.739,0-2.581-.842-2.581-2.582Z" fill="#fff"/>
        <path d="M196.155,141.515h-3.405v-2.712h9.934v2.712h-3.423v10.383h-3.105v-10.383Z" fill="#fff"/>
        <path d="M204.384,138.803h9.017v2.693h-5.911v2.376h4.732v2.656h-4.732v2.676h5.911v2.693h-9.017v-13.095Z" fill="#fff"/>
        <path d="M215.513,138.803h3.049v6.042l4.229-6.042h3.498l-3.854,5.088,4.06,8.007h-3.367l-2.657-5.388-1.908,2.507v2.881h-3.049v-13.095Z" fill="#fff"/>
        <path d="M226.157,141.797h3.124l1.796,7.389,1.796-7.389h2.974l-3.236,10.102h-3.198l-3.255-10.102Z" fill="#fff"/>
        <path d="M237.341,138.803h3.161l4.621,7.688v-7.688h3.012v13.095h-2.881l-4.901-8.119v8.119h-3.012v-13.095Z" fill="#fff"/>
        <path d="M250.752,138.803h3.105v13.095h-3.105v-13.095Z" fill="#fff"/>
        <path d="M256.476,138.803h3.049v6.042l4.229-6.042h3.498l-3.854,5.088,4.06,8.007h-3.367l-2.657-5.388-1.908,2.507v2.881h-3.049v-13.095Z" fill="#fff"/>
      </g>
    </g>
  </g>
</svg>