<?xml version="1.0" encoding="UTF-8"?>
<svg id="b" data-name="Layer 2" xmlns="http://www.w3.org/2000/svg" width="291.396" height="141.564" viewBox="0 0 291.396 141.564">
  <g id="c" data-name="Layer 1">
    <g>
      <polygon points="204.216 37.462 237.472 74.925 205.512 74.925 188.236 55.474 170.961 74.925 138.985 74.925 172.257 37.462 188.236 19.451 205.512 0 237.472 0 204.216 37.462" fill="#fff"/>
      <polygon points="170.231 0 103.72 74.925 70.817 74.925 53.925 55.906 69.921 37.894 87.261 57.441 138.256 0 170.231 0" fill="#fff"/>
    </g>
    <g>
      <path d="M.738,122.169v-6.062h6.451v5.014c0,.544.155.738.738.738h4.586c.545,0,.738-.194.738-.738v-20.793h6.452v21.842c0,3.614-1.749,5.363-5.363,5.363H6.102c-3.653,0-5.363-1.749-5.363-5.363Z" fill="#fff"/>
      <path d="M30.355,100.327h8.899l8.278,27.205h-6.957l-1.554-5.752h-8.667l-1.555,5.752h-6.685l8.239-27.205ZM28.179,92.555h5.441v5.208h-5.441v-5.208ZM37.545,116.301l-2.837-10.649-2.876,10.649h5.713ZM36.107,92.555h5.402v5.208h-5.402v-5.208Z" fill="#fff"/>
      <path d="M50.606,100.327h15.157c3.614,0,5.363,1.71,5.363,5.363v6.802c0,3.07-1.205,4.741-3.731,5.207l4.703,9.833h-6.724l-4.547-9.366h-3.771v9.366h-6.451v-27.205ZM63.937,112.803c.545,0,.739-.155.739-.738v-5.519c0-.583-.194-.738-.739-.738h-6.879v6.995h6.879Z" fill="#fff"/>
      <path d="M75.988,100.327h6.567l9.6,15.974v-15.974h6.257v27.205h-5.984l-10.183-16.867v16.867h-6.257v-27.205Z" fill="#fff"/>
      <path d="M103.856,100.327h6.335v12.554l8.783-12.554h7.268l-8.006,10.571,8.434,16.634h-6.996l-5.519-11.193-3.964,5.208v5.985h-6.335v-27.205Z" fill="#fff"/>
      <path d="M129.626,100.327h6.451v27.205h-6.451v-27.205Z" fill="#fff"/>
      <path d="M141.521,100.327h15.156c3.614,0,5.363,1.71,5.363,5.363v6.802c0,3.07-1.204,4.741-3.73,5.207l4.702,9.833h-6.724l-4.547-9.366h-3.77v9.366h-6.451v-27.205ZM154.851,112.803c.544,0,.738-.155.738-.738v-5.519c0-.583-.194-.738-.738-.738h-6.879v6.995h6.879Z" fill="#fff"/>
      <path d="M166.707,122.169v-21.842h6.451v20.754c0,.505.233.738.738.738h6.335c.544,0,.738-.233.738-.738v-20.754h6.452v21.842c0,3.537-1.788,5.363-5.363,5.363h-9.988c-3.537,0-5.363-1.826-5.363-5.363Z" fill="#fff"/>
      <path d="M192.671,100.327h15.157c3.614,0,5.363,1.71,5.363,5.363v6.802c0,3.07-1.205,4.741-3.731,5.207l4.702,9.833h-6.723l-4.548-9.366h-3.77v9.366h-6.451v-27.205ZM206.001,112.803c.544,0,.738-.155.738-.738v-5.519c0-.583-.194-.738-.738-.738h-6.879v6.995h6.879Z" fill="#fff"/>
      <path d="M217.547,122.169v-16.479c0-3.653,1.749-5.363,5.363-5.363h10.066c3.614,0,5.363,1.71,5.363,5.363v3.614h-6.413v-2.682c0-.583-.194-.738-.738-.738h-6.451c-.544,0-.738.155-.738.738v14.613c0,.544.194.738.738.738h6.451c.544,0,.738-.194.738-.738v-3.809h-4.586v-5.324h10.999v10.065c0,3.614-1.749,5.363-5.363,5.363h-10.066c-3.614,0-5.363-1.749-5.363-5.363Z" fill="#fff"/>
      <path d="M243.122,100.327h18.732v5.597h-12.281v4.936h9.833v5.519h-9.833v5.558h12.281v5.597h-18.732v-27.205Z" fill="#fff"/>
      <path d="M266.249,100.327h6.567l9.6,15.974v-15.974h6.258v27.205h-5.985l-10.183-16.867v16.867h-6.257v-27.205Z" fill="#fff"/>
    </g>
  </g>
</svg>