<?xml version="1.0" encoding="UTF-8"?>
<svg id="b" data-name="Layer 2" xmlns="http://www.w3.org/2000/svg" width="433.173" height="56.808" viewBox="0 0 433.173 56.808">
  <g id="c" data-name="Layer 1">
    <g>
      <g>
        <polygon points="113.951 28.404 139.166 56.808 114.934 56.808 101.835 42.06 88.737 56.808 64.493 56.808 89.719 28.404 101.835 14.748 114.934 0 139.166 0 113.951 28.404" fill="#fff"/>
        <polygon points="88.184 0 37.755 56.808 12.807 56.808 0 42.388 12.128 28.732 25.275 43.552 63.94 0 88.184 0" fill="#fff"/>
      </g>
      <g>
        <path d="M163.906,35.894v-5.618h5.978v4.646c0,.505.144.685.684.685h4.25c.504,0,.684-.18.684-.685V15.655h5.979v20.238c0,3.349-1.621,4.97-4.97,4.97h-7.635c-3.385,0-4.969-1.621-4.969-4.97Z" fill="#fff"/>
        <path d="M191.344,15.655h8.247l7.67,25.208h-6.445l-1.441-5.33h-8.03l-1.44,5.33h-6.193l7.634-25.208ZM189.327,8.453h5.042v4.825h-5.042v-4.825ZM198.006,30.456l-2.629-9.867-2.664,9.867h5.293ZM196.674,8.453h5.005v4.825h-5.005v-4.825Z" fill="#fff"/>
        <path d="M210.103,15.655h14.044c3.35,0,4.97,1.585,4.97,4.97v6.302c0,2.845-1.116,4.394-3.457,4.825l4.357,9.111h-6.229l-4.214-8.679h-3.493v8.679h-5.978V15.655ZM222.455,27.215c.505,0,.685-.144.685-.685v-5.113c0-.54-.18-.684-.685-.684h-6.374v6.481h6.374Z" fill="#fff"/>
        <path d="M233.617,15.655h6.086l8.895,14.801v-14.801h5.798v25.208h-5.546l-9.435-15.629v15.629h-5.798V15.655Z" fill="#fff"/>
        <path d="M259.434,15.655h5.87v11.632l8.139-11.632h6.733l-7.418,9.795,7.814,15.413h-6.482l-5.113-10.371-3.673,4.825v5.546h-5.87V15.655Z" fill="#fff"/>
        <path d="M283.307,15.655h5.979v25.208h-5.979V15.655Z" fill="#fff"/>
        <path d="M294.326,15.655h14.044c3.35,0,4.97,1.585,4.97,4.97v6.302c0,2.845-1.116,4.394-3.457,4.825l4.357,9.111h-6.229l-4.214-8.679h-3.493v8.679h-5.978V15.655ZM306.677,27.215c.505,0,.685-.144.685-.685v-5.113c0-.54-.18-.684-.685-.684h-6.374v6.481h6.374Z" fill="#fff"/>
        <path d="M317.66,35.894V15.655h5.978v19.229c0,.469.216.685.685.685h5.869c.505,0,.685-.216.685-.685V15.655h5.978v20.238c0,3.277-1.656,4.97-4.97,4.97h-9.254c-3.277,0-4.97-1.692-4.97-4.97Z" fill="#fff"/>
        <path d="M341.713,15.655h14.044c3.35,0,4.97,1.585,4.97,4.97v6.302c0,2.845-1.116,4.394-3.457,4.825l4.357,9.111h-6.229l-4.214-8.679h-3.493v8.679h-5.978V15.655ZM354.064,27.215c.505,0,.685-.144.685-.685v-5.113c0-.54-.18-.684-.685-.684h-6.374v6.481h6.374Z" fill="#fff"/>
        <path d="M364.759,35.894v-15.269c0-3.385,1.62-4.97,4.97-4.97h9.326c3.35,0,4.97,1.585,4.97,4.97v3.349h-5.941v-2.484c0-.54-.181-.685-.685-.685h-5.978c-.504,0-.685.145-.685.685v13.54c0,.504.181.685.685.685h5.978c.504,0,.685-.181.685-.685v-3.529h-4.25v-4.934h10.191v9.327c0,3.349-1.62,4.97-4.97,4.97h-9.326c-3.35,0-4.97-1.621-4.97-4.97Z" fill="#fff"/>
        <path d="M388.451,15.655h17.357v5.186h-11.38v4.573h9.111v5.114h-9.111v5.149h11.38v5.186h-17.357V15.655Z" fill="#fff"/>
        <path d="M409.875,15.655h6.086l8.895,14.801v-14.801h5.798v25.208h-5.546l-9.435-15.629v15.629h-5.798V15.655Z" fill="#fff"/>
      </g>
    </g>
  </g>
</svg>