<?xml version="1.0" encoding="UTF-8"?>
<svg id="b" xmlns="http://www.w3.org/2000/svg" version="1.1" viewBox="0 0 147.9 113.6">
  <!-- Generator: Adobe Illustrator 30.2.1, SVG Export Plug-In . SVG Version: 2.1.1 Build 1)  -->
  <defs>
    <style>
      .st0 {
        fill: #595862;
      }
    </style>
  </defs>
  <polygon class="st0" points="120.8 85.2 146 113.6 121.8 113.6 108.7 98.9 95.6 113.6 71.3 113.6 96.6 85.2 108.7 71.6 121.8 56.8 146 56.8 120.8 85.2"/>
  <polygon class="st0" points="96.8 56.8 46.4 113.6 21.4 113.6 8.6 99.2 20.7 85.5 33.9 100.4 72.5 56.8 96.8 56.8"/>
  <polygon class="st0" points="96.1 28.7 84 42.4 96.8 56.8 121.8 56.8 147.9 27.3 147.9 0 109.3 43.6 96.1 28.7"/>
  <polygon class="st0" points="147.9 54.6 146 56.8 147.9 56.8 147.9 54.6"/>
  <polygon class="st0" points="24.2 0 0 0 0 27.3 24.2 0"/>
  <polygon class="st0" points="23.3 28.4 0 54.6 0 56.8 22.3 56.8 35.4 42.1 48.5 56.8 72.8 56.8 47.5 28.4 72.8 0 48.5 0 35.4 14.7 23.3 28.4"/>
</svg>